<?xml version="1.0" encoding="UTF-8" standalone="no"?>
<svg
   viewBox="0 0 26 52"
   version="1.1"
   id="svg27"
   sodipodi:docname="icon-fullscreen_dark.svg"
   inkscape:version="1.2.2 (732a01da63, 2022-12-09, custom)"
   xmlns:inkscape="http://www.inkscape.org/namespaces/inkscape"
   xmlns:sodipodi="http://sodipodi.sourceforge.net/DTD/sodipodi-0.dtd"
   xmlns="http://www.w3.org/2000/svg"
   xmlns:svg="http://www.w3.org/2000/svg">
  <defs
     id="defs31" />
  <sodipodi:namedview
     id="namedview29"
     pagecolor="#ffffff"
     bordercolor="#666666"
     borderopacity="1.0"
     inkscape:showpageshadow="2"
     inkscape:pageopacity="0.0"
     inkscape:pagecheckerboard="0"
     inkscape:deskcolor="#d1d1d1"
     showgrid="false"
     inkscape:zoom="36.288462"
     inkscape:cx="13.006889"
     inkscape:cy="26"
     inkscape:window-width="3768"
     inkscape:window-height="2096"
     inkscape:window-x="72"
     inkscape:window-y="27"
     inkscape:window-maximized="1"
     inkscape:current-layer="svg27" />
  <path
     d="M20.6 36.7H16a.9.9 0 0 1-.8-.8v-4.5c0-.2.2-.4.4-.4h1.4c.3 0 .5.2.5.4v3h3c.2 0 .4.2.4.5v1.4c0 .2-.2.4-.4.4zm-9.9-.8v-4.5c0-.2-.2-.4-.4-.4H8.9c-.3 0-.5.2-.5.4v3h-3c-.2 0-.4.2-.4.5v1.4c0 .2.2.4.4.4H10c.4 0 .8-.4.8-.8zm0 10.7V42c0-.4-.4-.8-.8-.8H5.4c-.2 0-.4.2-.4.4v1.4c0 .3.2.5.4.5h3v3c0 .2.2.4.5.4h1.4c.2 0 .4-.2.4-.4zm6.9 0v-3h3c.2 0 .4-.2.4-.5v-1.4c0-.2-.2-.4-.4-.4H16c-.4 0-.8.4-.8.8v4.5c0 .2.2.4.4.4h1.4c.3 0 .5-.2.5-.4zM5 10.3V5.9c0-.5.4-.9.9-.9h4.4c.2 0 .4.2.4.4V7c0 .2-.2.4-.4.4h-3v3c0 .2-.2.4-.4.4H5.4a.4.4 0 0 1-.4-.4zm10.3-4.9V7c0 .2.2.4.4.4h3v3c0 .2.2.4.4.4h1.5c.2 0 .4-.2.4-.4V5.9c0-.5-.4-.9-.9-.9h-4.4c-.2 0-.4.2-.4.4zm5.3 9.9H19c-.2 0-.4.2-.4.4v3h-3c-.2 0-.4.2-.4.4v1.5c0 .2.2.4.4.4h4.4c.5 0 .9-.4.9-.9v-4.4c0-.2-.2-.4-.4-.4zm-9.9 5.3V19c0-.2-.2-.4-.4-.4h-3v-3c0-.2-.2-.4-.4-.4H5.4c-.2 0-.4.2-.4.4v4.4c0 .5.4.9.9.9h4.4c.2 0 .4-.2.4-.4z"
     fill="currentColor"
     id="path25"
     style="fill:#ffffff" />
</svg>
