<?xml version="1.0" encoding="UTF-8" standalone="no"?>
<!-- Created with Inkscape (http://www.inkscape.org/) -->

<svg
   width="75mm"
   height="75mm"
   viewBox="0 0 75 75"
   version="1.1"
   id="svg2658"
   inkscape:version="1.1.2 (08b2f3d93c, 2022-04-05)"
   sodipodi:docname="EMA-HUM-REP.svg"
   xmlns:inkscape="http://www.inkscape.org/namespaces/inkscape"
   xmlns:sodipodi="http://sodipodi.sourceforge.net/DTD/sodipodi-0.dtd"
   xmlns="http://www.w3.org/2000/svg"
   xmlns:svg="http://www.w3.org/2000/svg">
  <sodipodi:namedview
     id="namedview2660"
     pagecolor="#ffffff"
     bordercolor="#666666"
     borderopacity="1.0"
     inkscape:pageshadow="2"
     inkscape:pageopacity="0.0"
     inkscape:pagecheckerboard="0"
     inkscape:document-units="mm"
     showgrid="false"
     inkscape:zoom="1.5037598"
     inkscape:cx="6.3174982"
     inkscape:cy="112.71747"
     inkscape:window-width="1872"
     inkscape:window-height="1016"
     inkscape:window-x="48"
     inkscape:window-y="27"
     inkscape:window-maximized="1"
     inkscape:current-layer="layer1" />
  <defs
     id="defs2655" />
  <g
     inkscape:label="Layer 1"
     inkscape:groupmode="layer"
     id="layer1">
    <ellipse
       style="fill:#d75c00;fill-opacity:1;stroke:#000000;stroke-width:5.724;stroke-miterlimit:4;stroke-dasharray:none"
       id="ellipse2823"
       cx="52.427368"
       cy="52.462635"
       rx="19.638123"
       ry="19.638124" />
    <ellipse
       style="fill:#007600;fill-opacity:1;stroke:#000000;stroke-width:5.72376"
       id="path2741"
       cx="22.4802"
       cy="46.101974"
       rx="19.638123"
       ry="19.638124" />
    <path
       d="m 31.266898,69.071052 h 10.198289 l 1.521851,5.897217 h 7.009806 L 40.369782,30.393835 c 2.294311,-1.507897 3.834677,-4.267643 3.834677,-7.417817 0,-4.759691 -3.516284,-8.632226 -7.838416,-8.632226 -4.322133,0 -7.838417,3.872535 -7.838417,8.632226 0,3.150174 1.540366,5.910253 3.834677,7.417817 l -9.627367,44.574434 h 7.010111 z M 36.365738,19.6918 c 1.644172,0 2.982089,1.473135 2.982089,3.283884 0,1.811084 -1.337917,3.28455 -2.982089,3.28455 -1.644474,0 -2.982088,-1.473466 -2.982088,-3.28455 0,-1.810749 1.337918,-3.283884 2.982088,-3.283884 z m 15.407916,17.770876 -4.292691,-4.727603 c 2.366854,-2.606649 3.670474,-6.072376 3.670474,-9.758721 0,-3.686345 -1.30362,-7.152073 -3.670474,-9.758722 l 4.292691,-4.7272674 c 3.513249,3.8695274 5.448193,9.0143004 5.448193,14.4863234 0,5.472024 -1.934944,10.616461 -5.448193,14.48599 z m 7.531254,8.294946 -4.292386,-4.727601 c 4.378586,-4.822202 6.790057,-11.233528 6.790057,-18.053669 0,-6.819808 -2.411471,-13.2314685 -6.790057,-18.0536687 l 4.292386,-4.72726645 c 5.524984,6.08507745 8.56808,14.17545015 8.56808,22.78093515 0,8.60582 -3.042792,16.696192 -8.56808,22.78127 z m -38.34678,-8.294946 c -3.513554,-3.869529 -5.448498,-9.0143 -5.448498,-14.486324 0,-5.472025 1.934944,-10.616797 5.448193,-14.486324 l 4.292692,4.727268 c -2.366855,2.606983 -3.670475,6.072711 -3.670475,9.759056 0,3.686345 1.303318,7.152072 3.670475,9.758721 z M 10.929202,22.976352 c 0,6.819807 2.411472,13.231467 6.790058,18.053669 l -4.29269,4.727601 C 7.9015842,39.672544 4.8587922,31.582172 4.8587922,22.976352 c 0,-8.605485 3.042792,-16.6958577 8.5677778,-22.78093515 L 17.71926,4.923018 c -4.37889,4.8218655 -6.790058,11.233526 -6.790058,18.053334 z"
       id="path4668"
       style="stroke-width:0.318525" />
  </g>
</svg>
