<?xml version="1.0" encoding="iso-8859-1"?>
<!-- Generator: Adobe Illustrator 19.0.0, SVG Export Plug-In . SVG Version: 6.00 Build 0)  -->
<svg version="1.1" id="Layer_1" xmlns="http://www.w3.org/2000/svg" xmlns:xlink="http://www.w3.org/1999/xlink" x="0px" y="0px"
	 viewBox="0 0 512 512" style="enable-background:new 0 0 512 512;" xml:space="preserve">
<g>
	<g>
		<path d="M447.449,86.06L262.33,271.178l-21.508-21.508l37.831-37.831c-8.185-4.578-17.441-7.026-27.077-7.026
			c-30.665,0-55.612,24.947-55.612,55.612s24.947,55.613,55.612,55.613c30.665,0,55.612-24.947,55.612-55.613h30.417
			c0,47.437-38.592,86.03-86.029,86.03c-47.437,0-86.029-38.592-86.029-86.03s38.592-86.029,86.029-86.029
			c17.824,0,34.806,5.405,49.118,15.402l48.474-48.474c-27.455-22.581-61.579-34.861-97.593-34.861
			c-84.896,0-153.963,69.066-153.963,153.962s69.067,153.963,153.963,153.963c84.894,0,153.962-69.067,153.962-153.963h30.417
			c0,101.667-82.712,184.38-184.379,184.38S67.196,362.091,67.196,260.424s82.713-184.379,184.38-184.379
			c44.146,0,85.915,15.419,119.179,43.692l55.186-55.185C379.054,22.824,319.286,0,256,0C187.62,0,123.333,26.629,74.981,74.981
			C26.628,123.332,0,187.62,0,256S26.628,388.668,74.981,437.02C123.333,485.371,187.62,512,256.001,512
			c68.381,0,132.668-26.629,181.019-74.98C485.371,388.668,512,324.38,512,256C512,192.715,489.176,132.947,447.449,86.06z
			 M410.945,222.225c-11.306,0-20.471-9.166-20.471-20.471c0-11.306,9.166-20.471,20.471-20.471s20.471,9.166,20.471,20.471
			C431.417,213.059,422.251,222.225,410.945,222.225z"/>
	</g>
</g>
<g>
</g>
<g>
</g>
<g>
</g>
<g>
</g>
<g>
</g>
<g>
</g>
<g>
</g>
<g>
</g>
<g>
</g>
<g>
</g>
<g>
</g>
<g>
</g>
<g>
</g>
<g>
</g>
<g>
</g>
</svg>
