<?xml version="1.0" encoding="UTF-8" standalone="no"?>
<!-- Created with Inkscape (http://www.inkscape.org/) -->

<svg
   width="75mm"
   height="50mm"
   viewBox="0 0 75 50"
   version="1.1"
   id="svg2658"
   inkscape:version="1.2.2 (732a01da63, 2022-12-09, custom)"
   sodipodi:docname="REP-QUE.svg"
   xmlns:inkscape="http://www.inkscape.org/namespaces/inkscape"
   xmlns:sodipodi="http://sodipodi.sourceforge.net/DTD/sodipodi-0.dtd"
   xmlns="http://www.w3.org/2000/svg"
   xmlns:svg="http://www.w3.org/2000/svg">
  <sodipodi:namedview
     id="namedview2660"
     pagecolor="#ffffff"
     bordercolor="#666666"
     borderopacity="1.0"
     inkscape:pageshadow="2"
     inkscape:pageopacity="0.0"
     inkscape:pagecheckerboard="0"
     inkscape:document-units="mm"
     showgrid="false"
     inkscape:zoom="3.0075196"
     inkscape:cx="64.172483"
     inkscape:cy="80.797478"
     inkscape:window-width="1902"
     inkscape:window-height="1501"
     inkscape:window-x="1819"
     inkscape:window-y="59"
     inkscape:window-maximized="0"
     inkscape:current-layer="layer1"
     inkscape:showpageshadow="2"
     inkscape:deskcolor="#d1d1d1" />
  <defs
     id="defs2655" />
  <g
     inkscape:label="Layer 1"
     inkscape:groupmode="layer"
     id="layer1">
    <ellipse
       style="fill:#ffff00;fill-opacity:1;stroke:#000000;stroke-width:5.24618"
       id="path2741"
       cx="20.877695"
       cy="26.86972"
       rx="18.197132"
       ry="17.804142" />
    <g
       id="g912"
       transform="matrix(0.21018357,0,0,0.22253256,30.024278,0.26118865)">
      <path
         d="m 95.045,206.047 h 33.6 l 5.014,17.642 h 23.095 L 125.036,90.341 c 7.559,-4.511 12.634,-12.767 12.634,-22.191 0,-14.239 -11.585,-25.824 -25.825,-25.824 -14.24,0 -25.825,11.585 -25.825,25.824 0,9.424 5.075,17.681 12.634,22.191 L 66.935,223.689 H 90.031 Z M 111.844,58.325 c 5.417,0 9.825,4.407 9.825,9.824 0,5.418 -4.408,9.826 -9.825,9.826 -5.418,0 -9.825,-4.408 -9.825,-9.826 0,-5.417 4.408,-9.824 9.825,-9.824 z m 50.764,53.163 -14.143,-14.143 c 7.798,-7.798 12.093,-18.166 12.093,-29.194 0,-11.028 -4.295,-21.396 -12.093,-29.194 l 14.143,-14.142 c 11.575,11.576 17.95,26.967 17.95,43.337 0,16.37 -6.375,31.76 -17.95,43.336 z m 24.813,24.815 -14.142,-14.143 c 14.426,-14.426 22.371,-33.606 22.371,-54.009 0,-20.402 -7.945,-39.583 -22.371,-54.009 L 187.421,0 c 18.203,18.204 28.229,42.407 28.229,68.151 0,25.745 -10.025,49.948 -28.229,68.152 z M 61.081,111.488 C 49.505,99.912 43.13,84.521 43.13,68.151 43.13,51.781 49.505,36.39 61.08,24.814 L 75.223,38.956 C 67.425,46.755 63.13,57.123 63.13,68.151 c 0,11.028 4.294,21.396 12.093,29.194 z M 28.039,68.151 c 0,20.402 7.945,39.583 22.371,54.009 L 36.267,136.303 C 18.064,118.099 8.039,93.896 8.039,68.151 8.039,42.407 18.064,18.204 36.267,0 L 50.41,14.143 C 35.983,28.568 28.039,47.749 28.039,68.151 Z"
         id="path859" />
      <g
         id="g861" />
      <g
         id="g863" />
      <g
         id="g865" />
      <g
         id="g867" />
      <g
         id="g869" />
      <g
         id="g871" />
      <g
         id="g873" />
      <g
         id="g875" />
      <g
         id="g877" />
      <g
         id="g879" />
      <g
         id="g881" />
      <g
         id="g883" />
      <g
         id="g885" />
      <g
         id="g887" />
      <g
         id="g889" />
    </g>
  </g>
</svg>
