<?xml version="1.0" encoding="UTF-8" standalone="no"?>
<!-- Created with Inkscape (http://www.inkscape.org/) -->

<svg
   version="1.1"
   id="svg2"
   xml:space="preserve"
   width="651.40002"
   height="297.17334"
   viewBox="0 0 651.40002 297.17334"
   sodipodi:docname="senamhi.svg"
   inkscape:version="1.1.2 (08b2f3d93c, 2022-04-05)"
   xmlns:inkscape="http://www.inkscape.org/namespaces/inkscape"
   xmlns:sodipodi="http://sodipodi.sourceforge.net/DTD/sodipodi-0.dtd"
   xmlns="http://www.w3.org/2000/svg"
   xmlns:svg="http://www.w3.org/2000/svg"><defs
     id="defs6" /><sodipodi:namedview
     id="namedview4"
     pagecolor="#505050"
     bordercolor="#eeeeee"
     borderopacity="1"
     inkscape:pageshadow="0"
     inkscape:pageopacity="0"
     inkscape:pagecheckerboard="0"
     showgrid="false"
     inkscape:zoom="2.1123733"
     inkscape:cx="358.83809"
     inkscape:cy="148.41127"
     inkscape:window-width="1864"
     inkscape:window-height="1016"
     inkscape:window-x="1976"
     inkscape:window-y="27"
     inkscape:window-maximized="1"
     inkscape:current-layer="g8" /><g
     id="g8"
     inkscape:groupmode="layer"
     inkscape:label="ink_ext_XXXXXX"
     transform="matrix(1.3333333,0,0,-1.3333333,0,297.17333)"><g
       id="g10"
       transform="scale(0.1)"><path
         d="m 2050.23,656.422 c 6.53,-3.902 15.82,-7 25.94,-7 9.13,0 17.45,4.226 17.45,12.699 0,6.348 -4.73,10.258 -14.84,15.629 -11.58,6.18 -22.68,14.809 -22.68,28.969 0,22.312 19.25,35.672 43.23,35.672 13.38,0 21.21,-2.942 25.93,-5.379 l -7.34,-19.532 c -3.58,1.95 -11.41,4.879 -20.39,4.711 -11.08,0 -16.8,-5.371 -16.8,-11.39 0,-6.352 6.69,-10.422 15.99,-15.629 13.38,-6.844 21.86,-15.793 21.86,-28.981 0,-24.429 -20.23,-36.961 -44.7,-36.961 -15.33,0.161 -26.26,4.071 -31.48,7.821 l 7.83,19.371"
         style="fill:#2a4886;fill-opacity:1;fill-rule:nonzero;stroke:none"
         id="path12" /><path
         d="m 2200.17,677.582 h -38.99 l -5.06,-26.531 H 2200 l -3.75,-20.031 h -67.53 l 20.88,109.742 h 65.08 l -3.91,-20.032 h -41.43 l -4.57,-23.449 h 39.31 l -3.91,-19.699"
         style="fill:#2a4886;fill-opacity:1;fill-rule:nonzero;stroke:none"
         id="path14" /><path
         d="m 2248.15,691.91 h 9.62 c 12.73,0 22.02,7.66 22.02,18.399 0,8.953 -7.33,12.863 -16.8,12.863 -4.4,0 -7.17,-0.32 -9.13,-0.813 z m -14.36,46.891 c 7.35,1.789 18.44,2.769 29.36,2.769 10.44,0 21.21,-1.468 28.88,-6.351 7.17,-4.231 12.23,-11.231 12.23,-21.328 0,-16.282 -10.76,-26.539 -24.95,-31.09 v -0.492 c 6.52,-2.93 9.45,-10.098 10.44,-20.028 1.46,-12.371 2.28,-26.699 4.23,-31.261 h -24.14 c -0.97,2.929 -2.12,12.371 -3.1,25.89 -1.13,13.352 -5.7,17.422 -15,17.422 h -7.18 l -8.15,-43.312 h -23.17 l 20.55,107.781"
         style="fill:#2a4886;fill-opacity:1;fill-rule:nonzero;stroke:none"
         id="path16" /><path
         d="m 2330.72,631.02 -13.7,109.742 h 24.3 l 4.9,-52.274 c 1.14,-11.718 1.95,-22.297 2.61,-33.699 h 0.33 c 4.07,10.742 9.29,22.473 14.67,33.871 l 24.63,52.102 h 26.27 L 2357.96,631.02 h -27.24"
         style="fill:#2a4886;fill-opacity:1;fill-rule:nonzero;stroke:none"
         id="path18" /><path
         d="M 2450.64,740.762 2429.77,631.02 h -23.49 l 20.88,109.742 h 23.48"
         style="fill:#2a4886;fill-opacity:1;fill-rule:nonzero;stroke:none"
         id="path20" /><path
         d="m 2533.85,634.121 c -5.87,-2.609 -15.67,-4.73 -28.88,-4.73 -29.19,0 -48.6,17.75 -48.6,46.558 0,24.59 11.09,43.801 27.72,54.879 11.43,7.813 24.8,11.563 40.29,11.563 11.91,0 20.88,-2.77 24.15,-4.559 L 2542,718.781 c -3.09,1.457 -10.44,3.578 -19.9,3.578 -9.45,0 -18.43,-2.929 -25.12,-8.468 -9.13,-7.653 -15.16,-20.032 -15.16,-35.332 0,-17.418 9.95,-29.137 29.2,-29.137 7.82,0 15.48,1.297 20.87,3.578 l 1.96,-18.879"
         style="fill:#2a4886;fill-opacity:1;fill-rule:nonzero;stroke:none"
         id="path22" /><path
         d="M 2590.49,740.762 2569.61,631.02 h -23.5 l 20.88,109.742 h 23.5"
         style="fill:#2a4886;fill-opacity:1;fill-rule:nonzero;stroke:none"
         id="path24" /><path
         d="m 2634.7,714.699 c -8.81,-8.617 -13.7,-25.719 -13.7,-38.898 0,-15.469 7.02,-27.031 22.99,-27.031 7.03,0 13.38,2.929 18.44,7.968 8.64,8.641 13.38,26.703 13.38,39.41 0,13.672 -4.9,26.864 -22.19,26.864 -7.34,0 -13.86,-3.09 -18.92,-8.313 z m 66.06,-17.91 c 0,-20.019 -7.01,-39.559 -19.57,-51.758 -10.28,-9.941 -24.14,-15.801 -40.61,-15.801 -28.55,0 -44.54,20.192 -44.54,45.75 0,19.86 7.34,39.571 20.23,51.942 10.27,9.769 24.31,15.617 40.13,15.617 29.03,0 44.36,-19.527 44.36,-45.75"
         style="fill:#2a4886;fill-opacity:1;fill-rule:nonzero;stroke:none"
         id="path26" /><path
         d="m 2736.36,631.02 20.88,109.742 h 27.56 l 14.53,-41.852 c 4.4,-14 7.33,-25.398 9.95,-37.441 h 0.49 c 0.48,11.23 2.11,23.281 5.05,39.402 l 7.5,39.891 h 22.03 L 2823.47,631.02 h -24.31 l -15.33,43.8 c -4.89,14.809 -7.83,24.91 -10.76,38.262 h -0.5 c -1.13,-10.75 -3.75,-26.371 -7.01,-43.633 l -7.34,-38.429 h -21.86"
         style="fill:#2a4886;fill-opacity:1;fill-rule:nonzero;stroke:none"
         id="path28" /><path
         d="m 2906.04,677.422 -2.29,23.609 c -0.32,6.028 -0.98,14.821 -1.46,21.5 h -0.33 c -2.77,-6.679 -5.88,-15.152 -8.81,-21.5 l -10.92,-23.609 z m -30.67,-17.902 -12.88,-28.5 h -25.13 l 53.51,109.742 h 30.17 l 12.9,-109.742 h -24.8 l -2.12,28.5 h -31.65"
         style="fill:#2a4886;fill-opacity:1;fill-rule:nonzero;stroke:none"
         id="path30" /><path
         d="m 3023.52,634.121 c -5.87,-2.609 -15.66,-4.73 -28.87,-4.73 -29.2,0 -48.61,17.75 -48.61,46.558 0,24.59 11.09,43.801 27.73,54.879 11.42,7.813 24.79,11.563 40.29,11.563 11.91,0 20.88,-2.77 24.14,-4.559 l -6.52,-19.051 c -3.11,1.457 -10.44,3.578 -19.9,3.578 -9.47,0 -18.44,-2.929 -25.12,-8.468 -9.14,-7.653 -15.18,-20.032 -15.18,-35.332 0,-17.418 9.96,-29.137 29.2,-29.137 7.84,0 15.5,1.297 20.88,3.578 l 1.96,-18.879"
         style="fill:#2a4886;fill-opacity:1;fill-rule:nonzero;stroke:none"
         id="path32" /><path
         d="M 3080.16,740.762 3059.28,631.02 h -23.5 l 20.88,109.742 h 23.5"
         style="fill:#2a4886;fill-opacity:1;fill-rule:nonzero;stroke:none"
         id="path34" /><path
         d="m 3124.37,714.699 c -8.81,-8.617 -13.71,-25.719 -13.71,-38.898 0,-15.469 7.03,-27.031 23,-27.031 7.02,0 13.38,2.929 18.44,7.968 8.64,8.641 13.38,26.703 13.38,39.41 0,13.672 -4.9,26.864 -22.19,26.864 -7.34,0 -13.87,-3.09 -18.92,-8.313 z m 66.06,-17.91 c 0,-20.019 -7.01,-39.559 -19.57,-51.758 -10.28,-9.941 -24.14,-15.801 -40.62,-15.801 -28.54,0 -44.53,20.192 -44.53,45.75 0,19.86 7.34,39.571 20.23,51.942 10.27,9.769 24.3,15.617 40.12,15.617 29.04,0 44.37,-19.527 44.37,-45.75"
         style="fill:#2a4886;fill-opacity:1;fill-rule:nonzero;stroke:none"
         id="path36" /><path
         d="m 3196.02,631.02 20.87,109.742 h 27.57 l 14.52,-41.852 c 4.41,-14 7.34,-25.398 9.96,-37.441 h 0.48 c 0.49,11.23 2.12,23.281 5.06,39.402 l 7.5,39.891 H 3304 L 3283.13,631.02 h -24.31 l -15.33,43.8 c -4.9,14.809 -7.84,24.91 -10.77,38.262 h -0.49 c -1.14,-10.75 -3.75,-26.371 -7.02,-43.633 l -7.33,-38.429 h -21.86"
         style="fill:#2a4886;fill-opacity:1;fill-rule:nonzero;stroke:none"
         id="path38" /><path
         d="m 3365.69,677.422 -2.28,23.609 c -0.32,6.028 -0.98,14.821 -1.47,21.5 h -0.32 c -2.77,-6.679 -5.88,-15.152 -8.81,-21.5 l -10.93,-23.609 z m -30.66,-17.902 -12.88,-28.5 h -25.13 l 53.51,109.742 h 30.17 l 12.89,-109.742 h -24.79 l -2.12,28.5 h -31.65"
         style="fill:#2a4886;fill-opacity:1;fill-rule:nonzero;stroke:none"
         id="path40" /><path
         d="m 3426.41,740.762 h 23.49 l -16.97,-89.223 h 42.26 l -3.92,-20.519 h -65.74 l 20.88,109.742"
         style="fill:#2a4886;fill-opacity:1;fill-rule:nonzero;stroke:none"
         id="path42" /><path
         d="m 3542.26,649.738 c 2.77,-0.316 6.2,-0.488 10.27,-0.488 12.72,0 23.97,4.398 31.15,12.711 7.51,8.469 11.43,20.019 11.43,33.211 0,17.418 -9.63,27.68 -29.05,27.68 -4.07,0 -7.5,-0.321 -9.94,-0.813 z m -6.69,89.391 c 9.46,1.633 19.73,2.441 30.49,2.441 17.13,0 30.68,-3.91 39.98,-11.89 8.96,-7.321 14.51,-18.059 14.51,-34.348 0,-21.332 -8.97,-39.562 -22.51,-50.473 -12.73,-10.25 -28.87,-14.648 -52.69,-14.648 -13.21,0 -24.63,1.129 -30.17,2.109 l 20.39,106.809"
         style="fill:#2a4886;fill-opacity:1;fill-rule:nonzero;stroke:none"
         id="path44" /><path
         d="m 3697.58,677.582 h -38.99 l -5.05,-26.531 h 43.88 l -3.76,-20.031 h -67.53 l 20.88,109.742 h 65.09 l -3.92,-20.032 h -41.43 l -4.56,-23.449 h 39.3 l -3.91,-19.699"
         style="fill:#2a4886;fill-opacity:1;fill-rule:nonzero;stroke:none"
         id="path46" /><path
         d="m 3832.35,631.02 6.69,45.269 c 1.8,11.883 4.24,27.02 7.35,42.813 h -0.49 c -6.04,-14.161 -12.89,-29.301 -18.93,-41.352 l -22.51,-44.941 h -18.27 l -3.91,44.453 c -0.98,12.047 -1.79,27.187 -2.45,41.84 h -0.33 c -3.09,-14.481 -6.36,-30.93 -9.13,-42.813 l -10.93,-45.269 h -21.53 l 27.57,109.742 h 31.48 l 3.42,-41.68 c 0.66,-10.262 1.8,-22.793 1.96,-35.012 h 0.66 c 4.24,12.219 10.11,25.078 14.84,35.012 l 20.39,41.68 h 31.81 L 3855.2,631.02 h -22.85"
         style="fill:#2a4886;fill-opacity:1;fill-rule:nonzero;stroke:none"
         id="path48" /><path
         d="m 3945.93,677.582 h -38.99 l -5.06,-26.531 h 43.89 l -3.76,-20.031 h -67.53 l 20.88,109.742 h 65.09 l -3.92,-20.032 h -41.43 l -4.56,-23.449 h 39.3 l -3.91,-19.699"
         style="fill:#2a4886;fill-opacity:1;fill-rule:nonzero;stroke:none"
         id="path50" /><path
         d="m 3995.7,720.238 h -29.03 l 4.08,20.524 h 81.72 l -3.92,-20.524 h -29.35 l -16.97,-89.218 h -23.49 l 16.96,89.218"
         style="fill:#2a4886;fill-opacity:1;fill-rule:nonzero;stroke:none"
         id="path52" /><path
         d="m 4116.28,677.582 h -38.99 l -5.05,-26.531 h 43.88 l -3.76,-20.031 h -67.53 l 20.88,109.742 h 65.09 l -3.92,-20.032 h -41.43 l -4.56,-23.449 h 39.31 l -3.92,-19.699"
         style="fill:#2a4886;fill-opacity:1;fill-rule:nonzero;stroke:none"
         id="path54" /><path
         d="m 4172.58,714.699 c -8.81,-8.617 -13.7,-25.719 -13.7,-38.898 0,-15.469 7.02,-27.031 23,-27.031 7.02,0 13.37,2.929 18.43,7.968 8.65,8.641 13.38,26.703 13.38,39.41 0,13.672 -4.9,26.864 -22.19,26.864 -7.34,0 -13.86,-3.09 -18.92,-8.313 z m 66.06,-17.91 c 0,-20.019 -7.01,-39.559 -19.57,-51.758 -10.28,-9.941 -24.14,-15.801 -40.61,-15.801 -28.55,0 -44.53,20.192 -44.53,45.75 0,19.86 7.33,39.571 20.22,51.942 10.27,9.769 24.31,15.617 40.13,15.617 29.03,0 44.36,-19.527 44.36,-45.75"
         style="fill:#2a4886;fill-opacity:1;fill-rule:nonzero;stroke:none"
         id="path56" /><path
         d="m 4279.31,691.91 h 9.62 c 12.72,0 22.02,7.66 22.02,18.399 0,8.953 -7.35,12.863 -16.8,12.863 -4.4,0 -7.18,-0.32 -9.14,-0.813 z m -14.36,46.891 c 7.34,1.789 18.43,2.769 29.36,2.769 10.44,0 21.21,-1.468 28.87,-6.351 7.18,-4.231 12.23,-11.231 12.23,-21.328 0,-16.282 -10.76,-26.539 -24.95,-31.09 v -0.492 c 6.52,-2.93 9.46,-10.098 10.44,-20.028 1.46,-12.371 2.28,-26.699 4.24,-31.261 H 4301 c -0.98,2.929 -2.12,12.371 -3.1,25.89 -1.14,13.352 -5.71,17.422 -15.01,17.422 h -7.18 l -8.15,-43.312 h -23.17 l 20.56,107.781"
         style="fill:#2a4886;fill-opacity:1;fill-rule:nonzero;stroke:none"
         id="path58" /><path
         d="m 4382.74,714.699 c -8.8,-8.617 -13.7,-25.719 -13.7,-38.898 0,-15.469 7.02,-27.031 23,-27.031 7.02,0 13.38,2.929 18.44,7.968 8.64,8.641 13.38,26.703 13.38,39.41 0,13.672 -4.9,26.864 -22.19,26.864 -7.34,0 -13.87,-3.09 -18.93,-8.313 z m 66.07,-17.91 c 0,-20.019 -7.01,-39.559 -19.57,-51.758 -10.28,-9.941 -24.14,-15.801 -40.62,-15.801 -28.54,0 -44.53,20.192 -44.53,45.75 0,19.86 7.34,39.571 20.23,51.942 10.27,9.769 24.3,15.617 40.12,15.617 29.04,0 44.37,-19.527 44.37,-45.75"
         style="fill:#2a4886;fill-opacity:1;fill-rule:nonzero;stroke:none"
         id="path60" /><path
         d="m 4475.26,740.762 h 23.5 l -16.97,-89.223 h 42.25 l -3.91,-20.519 h -65.75 l 20.88,109.742"
         style="fill:#2a4886;fill-opacity:1;fill-rule:nonzero;stroke:none"
         id="path62" /><path
         d="m 4570.39,714.699 c -8.81,-8.617 -13.7,-25.719 -13.7,-38.898 0,-15.469 7.02,-27.031 23,-27.031 7.02,0 13.38,2.929 18.44,7.968 8.64,8.641 13.37,26.703 13.37,39.41 0,13.672 -4.9,26.864 -22.18,26.864 -7.35,0 -13.87,-3.09 -18.93,-8.313 z m 66.07,-17.91 c 0,-20.019 -7.02,-39.559 -19.58,-51.758 -10.28,-9.941 -24.14,-15.801 -40.61,-15.801 -28.55,0 -44.53,20.192 -44.53,45.75 0,19.86 7.33,39.571 20.22,51.942 10.28,9.769 24.31,15.617 40.13,15.617 29.03,0 44.37,-19.527 44.37,-45.75"
         style="fill:#2a4886;fill-opacity:1;fill-rule:nonzero;stroke:none"
         id="path64" /><path
         d="m 4732.72,636.07 c -8.32,-2.769 -21.68,-6.191 -35.55,-6.191 -15.01,0 -27.57,3.91 -36.54,12.051 -8.8,7.66 -13.86,19.859 -13.86,33.871 0,20.5 8.32,38.258 22.34,50.14 12.4,10.258 29.52,15.957 48.61,15.957 14.19,0 24.79,-2.769 29.04,-4.886 l -7.01,-19.703 c -4.91,2.293 -13.55,4.402 -23.33,4.402 -10.93,0 -20.56,-3.102 -27.89,-8.789 -9.63,-7.492 -15.99,-20.524 -15.99,-35.5 0,-18.391 10.93,-27.684 28.21,-27.684 5.55,0 9.31,0.821 12.08,1.961 l 4.4,23.121 h -17.12 l 3.75,18.719 h 39.96 l -11.1,-57.469"
         style="fill:#2a4886;fill-opacity:1;fill-rule:nonzero;stroke:none"
         id="path66" /><path
         d="M 4795.72,740.762 4774.84,631.02 h -23.48 l 20.88,109.742 h 23.48"
         style="fill:#2a4886;fill-opacity:1;fill-rule:nonzero;stroke:none"
         id="path68" /><path
         d="m 4857.56,677.422 -2.29,23.609 c -0.32,6.028 -0.97,14.821 -1.46,21.5 h -0.32 c -2.78,-6.679 -5.88,-15.152 -8.81,-21.5 l -10.93,-23.609 z m -30.67,-17.902 -12.88,-28.5 h -25.12 l 53.5,109.742 h 30.18 l 12.89,-109.742 h -24.8 l -2.12,28.5 h -31.65"
         style="fill:#2a4886;fill-opacity:1;fill-rule:nonzero;stroke:none"
         id="path70" /><path
         d="m 2116.95,499.578 h -38.99 l -5.05,-26.539 h 43.87 l -3.75,-20.027 h -67.53 l 20.88,109.738 h 65.08 l -3.91,-20.031 h -41.43 l -4.57,-23.449 h 39.31 l -3.91,-19.692"
         style="fill:#2a4886;fill-opacity:1;fill-rule:nonzero;stroke:none"
         id="path72" /><path
         d="m 2204.25,562.75 -8.15,-42.82 h 39.8 l 8.15,42.82 h 23.66 l -20.88,-109.738 h -23.49 l 8.64,46.078 h -39.96 l -8.65,-46.078 h -23.48 l 20.88,109.738 h 23.48"
         style="fill:#2a4886;fill-opacity:1;fill-rule:nonzero;stroke:none"
         id="path74" /><path
         d="m 2312.43,562.75 -20.88,-109.738 h -23.48 l 20.88,109.738 h 23.48"
         style="fill:#2a4886;fill-opacity:1;fill-rule:nonzero;stroke:none"
         id="path76" /><path
         d="m 2340.5,471.73 c 2.77,-0.32 6.2,-0.48 10.28,-0.48 12.72,0 23.98,4.391 31.15,12.699 7.5,8.473 11.42,20.02 11.42,33.211 0,17.43 -9.62,27.68 -29.03,27.68 -4.08,0 -7.51,-0.32 -9.95,-0.809 z m -6.69,89.391 c 9.46,1.629 19.74,2.438 30.51,2.438 17.13,0 30.66,-3.911 39.96,-11.879 8.97,-7.328 14.52,-18.071 14.52,-34.36 0,-21.332 -8.98,-39.558 -22.51,-50.468 -12.73,-10.25 -28.87,-14.653 -52.69,-14.653 -13.21,0 -24.63,1.141 -30.18,2.11 l 20.39,106.812"
         style="fill:#2a4886;fill-opacity:1;fill-rule:nonzero;stroke:none"
         id="path78" /><path
         d="m 2459.45,513.898 h 9.63 c 12.72,0 22.01,7.661 22.01,18.403 0,8.961 -7.33,12.859 -16.79,12.859 -4.41,0 -7.18,-0.32 -9.14,-0.808 z m -14.35,46.903 c 7.34,1.781 18.43,2.758 29.36,2.758 10.44,0 21.2,-1.457 28.87,-6.348 7.18,-4.231 12.24,-11.231 12.24,-21.332 0,-16.27 -10.77,-26.539 -24.96,-31.09 v -0.488 c 6.52,-2.93 9.46,-10.09 10.43,-20.031 1.48,-12.372 2.29,-26.7 4.25,-31.258 h -24.14 c -0.98,2.929 -2.12,12.379 -3.1,25.886 -1.14,13.352 -5.71,17.422 -15.01,17.422 h -7.18 l -8.15,-43.308 h -23.16 l 20.55,107.789"
         style="fill:#2a4886;fill-opacity:1;fill-rule:nonzero;stroke:none"
         id="path80" /><path
         d="m 2562.9,536.699 c -8.81,-8.629 -13.7,-25.73 -13.7,-38.91 0,-15.469 7.02,-27.027 23,-27.027 7.02,0 13.38,2.929 18.43,7.976 8.65,8.633 13.38,26.703 13.38,39.403 0,13.668 -4.9,26.871 -22.18,26.871 -7.35,0 -13.87,-3.102 -18.93,-8.313 z m 66.06,-17.91 c 0,-20.019 -7.01,-39.57 -19.57,-51.769 -10.28,-9.93 -24.14,-15.79 -40.61,-15.79 -28.55,0 -44.53,20.18 -44.53,45.739 0,19.863 7.33,39.57 20.22,51.941 10.28,9.77 24.31,15.629 40.13,15.629 29.03,0 44.36,-19.527 44.36,-45.75"
         style="fill:#2a4886;fill-opacity:1;fill-rule:nonzero;stroke:none"
         id="path82" /><path
         d="m 2655.42,562.75 h 23.5 l -16.98,-89.219 h 42.26 l -3.92,-20.519 h -65.74 l 20.88,109.738"
         style="fill:#2a4886;fill-opacity:1;fill-rule:nonzero;stroke:none"
         id="path84" /><path
         d="m 2750.55,536.699 c -8.81,-8.629 -13.7,-25.73 -13.7,-38.91 0,-15.469 7.02,-27.027 22.99,-27.027 7.03,0 13.38,2.929 18.44,7.976 8.64,8.633 13.38,26.703 13.38,39.403 0,13.668 -4.9,26.871 -22.19,26.871 -7.34,0 -13.86,-3.102 -18.92,-8.313 z m 66.06,-17.91 c 0,-20.019 -7.01,-39.57 -19.57,-51.769 -10.28,-9.93 -24.14,-15.79 -40.61,-15.79 -28.55,0 -44.54,20.18 -44.54,45.739 0,19.863 7.34,39.57 20.23,51.941 10.27,9.77 24.31,15.629 40.13,15.629 29.03,0 44.36,-19.527 44.36,-45.75"
         style="fill:#2a4886;fill-opacity:1;fill-rule:nonzero;stroke:none"
         id="path86" /><path
         d="m 2912.88,458.059 c -8.32,-2.77 -21.69,-6.188 -35.56,-6.188 -15.01,0 -27.56,3.91 -36.53,12.051 -8.81,7.66 -13.87,19.867 -13.87,33.867 0,20.512 8.32,38.262 22.35,50.152 12.4,10.25 29.52,15.95 48.61,15.95 14.19,0 24.79,-2.77 29.03,-4.891 l -7.01,-19.699 c -4.9,2.289 -13.54,4.398 -23.33,4.398 -10.93,0 -20.55,-3.097 -27.89,-8.789 -9.63,-7.488 -15.98,-20.519 -15.98,-35.5 0,-18.39 10.92,-27.68 28.21,-27.68 5.55,0 9.3,0.821 12.08,1.961 l 4.39,23.118 h -17.12 l 3.75,18.722 h 39.96 l -11.09,-57.472"
         style="fill:#2a4886;fill-opacity:1;fill-rule:nonzero;stroke:none"
         id="path88" /><path
         d="M 2975.88,562.75 2955,453.012 h -23.49 l 20.88,109.738 h 23.49"
         style="fill:#2a4886;fill-opacity:1;fill-rule:nonzero;stroke:none"
         id="path90" /><path
         d="m 3037.71,499.41 -2.28,23.61 c -0.32,6.031 -0.98,14.82 -1.47,21.5 h -0.32 c -2.77,-6.68 -5.88,-15.149 -8.81,-21.5 l -10.92,-23.61 z m -30.66,-17.898 -12.88,-28.5 h -25.13 l 53.51,109.738 h 30.17 l 12.9,-109.738 h -24.8 l -2.12,28.5 h -31.65"
         style="fill:#2a4886;fill-opacity:1;fill-rule:nonzero;stroke:none"
         id="path92" /><path
         d="m 3134.82,471.73 c 2.78,-0.32 6.2,-0.48 10.28,-0.48 12.72,0 23.97,4.391 31.15,12.699 7.51,8.473 11.43,20.02 11.43,33.211 0,17.43 -9.63,27.68 -29.05,27.68 -4.07,0 -7.5,-0.32 -9.94,-0.809 z m -6.69,89.391 c 9.47,1.629 19.74,2.438 30.5,2.438 17.13,0 30.68,-3.911 39.97,-11.879 8.97,-7.328 14.52,-18.071 14.52,-34.36 0,-21.332 -8.97,-39.558 -22.51,-50.468 -12.73,-10.25 -28.87,-14.653 -52.69,-14.653 -13.21,0 -24.63,1.141 -30.18,2.11 l 20.39,106.812"
         style="fill:#2a4886;fill-opacity:1;fill-rule:nonzero;stroke:none"
         id="path94" /><path
         d="m 3290.14,499.578 h -38.99 l -5.06,-26.539 h 43.89 l -3.76,-20.027 h -67.53 l 20.88,109.738 h 65.09 l -3.92,-20.031 h -41.43 l -4.56,-23.449 h 39.3 l -3.91,-19.692"
         style="fill:#2a4886;fill-opacity:1;fill-rule:nonzero;stroke:none"
         id="path96" /><path
         d="m 3323.94,562.75 h 23.49 l -16.97,-89.219 h 42.25 l -3.91,-20.519 h -65.74 l 20.88,109.738"
         style="fill:#2a4886;fill-opacity:1;fill-rule:nonzero;stroke:none"
         id="path98" /><path
         d="m 3446.63,511.789 c 2.45,-0.488 5.06,-0.82 9.14,-0.82 14.02,0 23.32,8.961 23.32,20.031 0,10.422 -7.66,13.84 -16.63,13.84 -4.4,0 -7.67,-0.32 -9.63,-0.649 z m -13.7,49.012 c 7.18,1.781 18.11,2.758 28.71,2.758 9.95,0 21.2,-1.629 29.2,-7.161 7.5,-5.046 11.9,-12.859 11.9,-23.437 0,-13.691 -6.35,-24.262 -14.84,-30.781 -8.96,-7 -21.86,-10.25 -35.23,-10.25 -3.92,0 -7.18,0.492 -9.62,0.64 l -7.5,-39.558 h -23.01 l 20.39,107.789"
         style="fill:#2a4886;fill-opacity:1;fill-rule:nonzero;stroke:none"
         id="path100" /><path
         d="m 3576.02,499.578 h -38.99 l -5.06,-26.539 h 43.89 l -3.76,-20.027 h -67.53 l 20.88,109.738 h 65.09 l -3.92,-20.031 h -41.43 l -4.56,-23.449 h 39.3 l -3.91,-19.692"
         style="fill:#2a4886;fill-opacity:1;fill-rule:nonzero;stroke:none"
         id="path102" /><path
         d="m 3624,513.898 h 9.62 c 12.73,0 22.02,7.661 22.02,18.403 0,8.961 -7.34,12.859 -16.79,12.859 -4.41,0 -7.18,-0.32 -9.14,-0.808 z m -14.35,46.903 c 7.33,1.781 18.43,2.758 29.35,2.758 10.44,0 21.21,-1.457 28.88,-6.348 7.18,-4.231 12.23,-11.231 12.23,-21.332 0,-16.27 -10.76,-26.539 -24.95,-31.09 v -0.488 c 6.52,-2.93 9.46,-10.09 10.44,-20.031 1.46,-12.372 2.28,-26.7 4.23,-31.258 h -24.14 c -0.97,2.929 -2.12,12.379 -3.09,25.886 -1.14,13.352 -5.72,17.422 -15.01,17.422 h -7.18 l -8.15,-43.308 h -23.17 l 20.56,107.789"
         style="fill:#2a4886;fill-opacity:1;fill-rule:nonzero;stroke:none"
         id="path104" /><path
         d="m 3726.64,562.75 -11.91,-63.172 c -0.81,-3.738 -1.3,-8.137 -1.3,-12.867 0,-8.949 5.53,-15.789 15.97,-15.789 12.41,0 20.39,8.148 24.31,28.488 l 12.07,63.34 h 23.5 l -11.92,-62.352 c -6.35,-33.226 -20.88,-49.168 -50.89,-49.168 -22.67,-0.171 -36.54,11.719 -36.54,35 0,4.719 0.66,10.09 1.63,15.301 l 11.58,61.219 h 23.5"
         style="fill:#2a4886;fill-opacity:1;fill-rule:nonzero;stroke:none"
         id="path106" /><path
         d="m 704.645,971.781 240.097,8.367 c -2.039,-40.277 2.977,-71.148 15,-92.609 19.617,-34.777 53.238,-52.867 100.978,-54.301 35.61,-1.078 64.62,6.782 86.97,23.614 22.4,16.82 35.61,36.66 39.71,59.578 3.89,21.761 -1.82,41.531 -17.06,59.25 -15.3,17.73 -54.99,35.24 -119.06,52.55 -104.8,28.87 -176.745,65.19 -215.757,108.98 -39.437,43.78 -53.25,98.54 -41.523,164.25 7.746,43.16 27.016,83.56 57.965,121.24 30.89,37.67 72.437,66.75 124.66,87.29 52.155,20.51 120.295,29.5 204.335,27.02 103.17,-3.1 178.21,-25.43 225.25,-66.92 46.99,-41.58 67.87,-106.02 62.55,-193.41 l -237.66,-7.31 c 0.53,38 -7.72,65.92 -24.61,83.69 -16.93,17.81 -43.01,27.23 -78.27,28.26 -29.01,0.87 -51.96,-4.89 -68.94,-17.25 -16.94,-12.34 -27.12,-27.69 -30.37,-46.02 -2.39,-13.39 1.51,-25.58 11.74,-36.63 9.74,-11.45 35.81,-22.6 78.13,-33.46 104.7,-27.69 178.31,-54.75 221.02,-81.2 42.72,-26.43 71.47,-58.51 86.33,-96.19 14.82,-37.69 18.18,-79.441 9.98,-125.281 -9.61,-53.867 -32.83,-103.09 -69.59,-147.687 -36.75,-44.614 -82.92,-77.883 -138.47,-99.832 -55.63,-21.95 -122.48,-31.77 -200.66,-29.43 -137.285,4.101 -227.433,34.469 -270.472,91.039 -43.012,56.59 -60.469,127.371 -52.273,212.402"
         style="fill:#2a4886;fill-opacity:1;fill-rule:nonzero;stroke:none"
         id="path108" /><path
         d="m 1827.54,1178.38 c 2.81,34.87 -1.71,59.85 -13.58,74.93 -11.89,15.05 -29.67,22.57 -53.44,22.57 -27.37,0 -51.26,-11.35 -71.7,-34.12 -12.96,-14.18 -23.37,-35.34 -31.16,-63.38 z m 160.01,-86.45 h -345.67 c -2.08,-28.96 1.6,-50.49 10.91,-64.67 13.06,-20.38 33.03,-30.588 59.8,-30.588 16.96,0 33.85,4.418 50.69,13.288 10.3,5.61 22.1,15.5 35.36,29.67 l 166.96,-16.39 c -34.42,-47.291 -71.77,-81.181 -112.13,-101.689 -40.4,-20.539 -94.89,-30.801 -163.5,-30.801 -59.61,0 -104.93,8.77 -135.97,26.371 -31.07,17.559 -54.42,45.469 -70.04,83.769 -15.64,38.22 -18.87,83.25 -9.68,134.93 13.06,73.56 46.17,133.11 99.34,178.63 53.09,45.52 119.37,68.24 198.74,68.24 64.37,0 113.4,-10.18 147.07,-30.57 33.65,-20.39 56.77,-49.94 69.36,-88.63 12.65,-38.72 13.42,-89.08 2.39,-151.17 l -3.63,-20.39"
         style="fill:#2a4886;fill-opacity:1;fill-rule:nonzero;stroke:none"
         id="path110" /><path
         d="m 2099.23,1372.06 h 160.56 l -13.66,-76.68 c 29.57,31.33 57.83,53.71 84.83,67.14 26.92,13.44 58.06,20.17 93.38,20.17 47.73,0 82.47,-14.82 104.1,-44.55 21.73,-29.68 27.02,-75.55 16.04,-137.61 l -53.22,-299.151 h -173.24 l 45.99,258.851 c 5.27,29.5 3.75,50.43 -4.52,62.68 -8.24,12.27 -21.85,18.4 -40.8,18.4 -20.88,0 -39.31,-8.29 -55.23,-24.79 -15.95,-16.56 -27.71,-46.26 -35.32,-89.1 l -40.2,-226.041 h -172.42 l 83.71,470.681"
         style="fill:#2a4886;fill-opacity:1;fill-rule:nonzero;stroke:none"
         id="path112" /><path
         d="m 2931.97,1124.76 c -25.25,-8.86 -51.38,-16.71 -78.3,-23.48 -36.76,-9.77 -60.62,-19.36 -71.62,-28.81 -11.33,-9.79 -18.13,-20.84 -20.34,-33.26 -2.53,-14.18 0.17,-25.76 8.05,-34.79 7.84,-9.01 20.93,-13.522 39.28,-13.522 19.2,0 37.97,4.883 56.2,14.632 18.26,9.74 32.08,21.66 41.53,35.69 9.43,14.01 16.11,32.26 20.11,54.71 z m -132.63,94.82 -161.61,18.18 c 11.61,30.15 24.74,53.84 39.56,71.15 14.78,17.28 34.3,32.28 58.62,44.97 17.43,9.17 40.45,16.27 69.03,21.29 28.57,5.01 58.94,7.52 91.14,7.52 51.66,0 92.66,-3.05 122.93,-9.06 30.31,-6.08 54.16,-18.7 71.62,-37.93 12.35,-13.28 20.57,-32.11 24.71,-56.49 4.15,-24.39 4.25,-47.66 0.28,-69.83 l -36.96,-207.84 c -3.91,-22.181 -5.65,-39.509 -5.21,-52.099 0.45,-12.519 3.47,-28.543 9.04,-48.062 h -161.82 c -4.34,12.121 -6.95,21.332 -7.8,27.691 -0.84,6.36 -1.06,16.352 -0.64,29.899 -26.65,-22.719 -51.93,-38.981 -75.97,-48.699 -32.83,-13.04 -69.43,-19.52 -109.81,-19.52 -53.68,0 -92.11,12.988 -115.31,38.961 -23.2,26.027 -31.44,58.09 -24.62,96.179 6.34,35.77 21.61,65.17 45.76,88.25 24.16,23.01 64.17,40.18 120.11,51.4 67.1,13.56 110.76,23.1 130.96,28.56 20.17,5.47 41.74,12.64 64.78,21.48 3.93,22.18 2.32,37.73 -4.84,46.56 -7.18,8.87 -21.8,13.29 -43.8,13.29 -28.26,0 -50.29,-4.72 -66.08,-14.16 -12.35,-7.39 -23.67,-21.27 -34.07,-41.69"
         style="fill:#2a4886;fill-opacity:1;fill-rule:nonzero;stroke:none"
         id="path114" /><path
         d="m 3249.23,1372.06 h 160.95 l -12.22,-68.69 c 28.31,28.66 55.3,49.02 81.1,61.17 25.76,12.12 55.33,18.15 88.69,18.15 35.93,0 63.18,-6.65 81.75,-19.94 18.58,-13.29 32.19,-33.08 40.75,-59.38 32.59,30.72 60.97,51.61 85.24,62.68 24.24,11.13 52.72,16.64 85.43,16.64 48.25,0 83.19,-14.98 104.95,-44.95 21.73,-30.03 26.91,-76.91 15.61,-140.73 l -52.54,-295.631 h -172.85 l 47.66,268.141 c 3.77,21.28 2.63,37.1 -3.4,47.4 -8.64,16.24 -21.53,24.39 -38.75,24.39 -20.23,0 -37.94,-7.67 -53.04,-23.05 -15.12,-15.37 -25.71,-40.03 -31.73,-74.03 l -43.2,-242.851 h -172.84 l 46.11,259.291 c 3.66,20.66 5.02,34.7 4.06,42.08 -1.57,11.84 -6.24,21.35 -14.04,28.6 -7.77,7.23 -17.75,10.85 -29.95,10.85 -19.84,0 -37.5,-7.84 -53.06,-23.49 -15.55,-15.67 -26.48,-41.35 -32.82,-77.13 l -42.73,-240.201 h -172.82 l 83.69,470.681"
         style="fill:#2a4886;fill-opacity:1;fill-rule:nonzero;stroke:none"
         id="path116" /><path
         d="m 4130.02,1551.12 h 172.42 l -42.54,-239.33 c 27.94,25.43 54.47,43.58 79.54,54.48 25.14,10.93 53.5,16.42 85.14,16.42 46.91,0 81.15,-14.92 102.81,-44.75 21.65,-29.85 27.04,-75.67 16.02,-137.41 l -53.15,-299.151 h -173.29 l 46.02,258.851 c 5.26,29.5 3.75,50.43 -4.52,62.68 -8.27,12.27 -21.83,18.4 -40.77,18.4 -20.92,0 -39.32,-8.29 -55.27,-24.79 -15.92,-16.56 -27.68,-46.26 -35.33,-89.1 l -40.19,-226.041 h -172.39 l 115.5,649.741"
         style="fill:#2a4886;fill-opacity:1;fill-rule:nonzero;stroke:none"
         id="path118" /><path
         d="m 4706.4,1551.12 h 172.4 l -21.86,-122.76 h -172.37 z m -31.82,-179.06 h 172.43 l -83.75,-470.681 h -172.39 l 83.71,470.681"
         style="fill:#2a4886;fill-opacity:1;fill-rule:nonzero;stroke:none"
         id="path120" /><path
         d="m 1780.61,569.129 c -10.01,147.601 -176.1,224.82 -255,241.43 C 1433.23,674.34 1277.22,584.82 1100.23,584.82 c -283.707,0.02 -513.671,229.961 -513.671,513.69 0,283.71 229.964,513.67 513.671,513.67 156.01,0 295.47,-69.8 389.7,-179.59 119.3,157.29 230.31,94.96 295.7,249.65 58.58,138.58 -55.53,332.06 -55.53,332.06 0,0 -30.87,-128.82 -200.31,-146.92 -113.77,-12.17 -171.06,-100.63 -198.01,-165.97 -10.03,5.97 -20.24,11.73 -30.62,17.14 -25.51,73.14 62.48,93.28 42.42,261.23 -17.29,144.98 -215.34,249.01 -215.34,249.01 0,0 42.1,-123.92 -77.95,-234.04 -67.552,-61.93 -81.657,-154.36 -74.583,-223.43 -17.453,-1.22 -27.289,-3.1 -44.324,-5.84 -74.309,45.28 -13.906,124.75 -117.367,236.53 -99.289,107.2 -326.149,70.62 -326.149,70.62 0,0 108.25,-74.55 73.485,-236.12 -18.547,-86.12 24.562,-161.24 68.918,-212.66 -13.559,-11.69 -26.676,-23.93 -39.262,-36.78 -42.121,26.16 -54.344,83.4 -180.278,120.56 -142.5,41.98 -318.3706,-110.82 -318.3706,-110.82 0,0 133.2066,-7.05 190.3786,-163.83 25.352,-69.43 82.102,-115.25 138.7,-138.92 -7.575,-25.41 -11.157,-40.58 -15.918,-67.2 -44.254,5.32 -92.04,29.23 -204.637,-7.73 C 58.3828,1172.37 0,938.879 0,938.879 c 0,0 114.734,71.421 252.34,-29.899 54.558,-40.16 117.465,-45.269 173.539,-36.859 5.914,-18.812 12.543,-37.269 19.918,-55.351 -1.289,-1.489 -2.609,-2.911 -3.824,-4.418 -39.086,-47.313 -99.41,-20.782 -189.114,-136 -89.699,-115.204 -14.796,-328.891 -14.796,-328.891 0,0 54.609,118.949 217.519,116.359 77.137,-1.238 137.734,42.918 180.246,89.762 19.301,-16.293 39.387,-31.512 60.399,-45.301 -0.098,-0.941 -0.348,-1.859 -0.473,-2.812 C 686.488,444.781 619.188,437.332 601.461,292.301 583.652,147.32 763.355,0 763.355,0 c 0,0 -15.152,130.551 129.805,210.461 80.164,44.238 107.56,130.66 116.07,199.168 5.1,-0.109 10.16,-0.391 15.3,-0.391 11.58,0 23.07,0.383 34.47,1.024 50.24,-62.032 -17.43,-116.274 49.79,-245.992 67.23,-129.6997 298.71,-149.8208 298.71,-149.8208 0,0 -86.22,99.2228 -11.72,247.0508 47.23,93.75 5.81,194.18 -30.79,255.18 9.18,6.32 18.17,12.89 27.02,19.711 108.27,-36.602 76.38,-139.391 201.5,-215.039 125.21,-75.614 338.81,33.128 338.81,33.128 0,0 -140.29,46.219 -151.71,214.649"
         style="fill:#fbbc09;fill-opacity:1;fill-rule:nonzero;stroke:none"
         id="path122" /></g></g></svg>
